<svg width="44" height="44" viewBox="0 0 44 44" fill="none" xmlns="http://www.w3.org/2000/svg">
<g clip-path="url(#clip0_249_84)">
<path fill-rule="evenodd" clip-rule="evenodd" d="M7.82571 2.2962C7.82571 1.75834 7.61204 1.24251 7.23171 0.862181C6.85139 0.481854 6.33555 0.268188 5.79769 0.268188C5.25983 0.268188 4.74399 0.481854 4.36367 0.862181C3.98334 1.24251 3.76967 1.75834 3.76967 2.2962V3.64821H2.41766C1.8798 3.64821 1.36397 3.86188 0.98364 4.24221C0.603314 4.62253 0.389648 5.13837 0.389648 5.67623C0.389648 6.21409 0.603314 6.72993 0.98364 7.11025C1.36397 7.49058 1.8798 7.70425 2.41766 7.70425H3.76967V9.05626C3.76967 9.59412 3.98334 10.11 4.36367 10.4903C4.74399 10.8706 5.25983 11.0843 5.79769 11.0843C6.33555 11.0843 6.85139 10.8706 7.23171 10.4903C7.61204 10.11 7.82571 9.59412 7.82571 9.05626V7.70425H9.17772C9.71558 7.70425 10.2314 7.49058 10.6117 7.11025C10.9921 6.72993 11.2057 6.21409 11.2057 5.67623C11.2057 5.13837 10.9921 4.62253 10.6117 4.24221C10.2314 3.86188 9.71558 3.64821 9.17772 3.64821H7.82571V2.2962ZM39.314 18.8394L39.2762 18.7367L37.789 14.8429L37.3239 16.276L36.4126 19.0747H18.4471L17.5385 16.276L17.0735 14.8483L15.5835 18.7556L15.5727 18.7826L15.5619 18.8097L15.5295 18.8908C15.2158 19.7357 15.1809 20.6589 15.4301 21.5251C15.6792 22.3912 16.1992 23.1548 16.9139 23.7039L16.9166 23.7066L16.9247 23.7148L16.9518 23.7364L16.9788 23.758L16.9896 23.7634L23.6794 28.7983L23.6929 28.8091L27.0243 31.3374L27.4244 31.6402L27.8192 31.3374L31.1533 28.8091L31.1695 28.7983L37.9025 23.7337L37.9188 23.7229L37.9431 23.7066C38.6625 23.1551 39.1851 22.3865 39.4335 21.5147C39.6819 20.6429 39.6429 19.7143 39.3221 18.8664L39.314 18.8394ZM40.3713 26.9515L33.6058 32.035L30.2718 34.566L28.2492 36.1046C28.0118 36.2844 27.7222 36.3818 27.4244 36.3818C27.1267 36.3818 26.8371 36.2844 26.5997 36.1046L24.5717 34.566L21.2404 32.0377L14.5209 26.9812L14.4857 26.9515L14.4668 26.9379C13.0479 25.8567 12.0165 24.3458 11.5263 22.6305C11.0361 20.9153 11.1133 19.0875 11.7465 17.4198L11.7925 17.3062L15.0752 8.70473L15.2591 8.22342L15.3753 7.91516L15.8431 6.69024L15.8891 6.56856L16.2082 5.73572C16.2863 5.53751 16.4175 5.36458 16.5872 5.23583C16.757 5.10708 16.9589 5.02745 17.1708 5.00563C17.4452 4.97658 17.7209 5.04603 17.9488 5.20157C18.1766 5.35711 18.3418 5.58861 18.4147 5.8547L18.6824 6.67942L18.6932 6.71457L19.215 8.32076L19.3773 8.81019L21.3945 15.0186H33.4652L35.4851 8.81019L35.6474 8.32347L36.1693 6.71457L36.1801 6.67942L36.4478 5.8547C36.4974 5.67943 36.5873 5.51816 36.7102 5.38372C36.8331 5.24927 36.9857 5.14536 37.1558 5.08025C37.3259 5.01514 37.5089 4.99063 37.6902 5.00865C37.8714 5.02668 38.046 5.08675 38.2 5.1841C38.4055 5.31573 38.5645 5.50872 38.6543 5.73572L38.9679 6.56044L39.0193 6.69024L39.4817 7.90705L39.6034 8.22342L39.7872 8.70203L43.0699 17.3035L43.1132 17.4225C43.7448 19.0898 43.821 20.9166 43.3303 22.6307C42.8397 24.3449 41.8084 25.8547 40.3902 26.9352L40.3713 26.9515ZM9.85372 30.0124C10.3916 30.0124 10.9074 30.2261 11.2877 30.6064C11.6681 30.9867 11.8817 31.5026 11.8817 32.0404V34.7445H14.5858C15.1236 34.7445 15.6395 34.9581 16.0198 35.3384C16.4001 35.7188 16.6138 36.2346 16.6138 36.7725C16.6138 37.3103 16.4001 37.8262 16.0198 38.2065C15.6395 38.5868 15.1236 38.8005 14.5858 38.8005H11.8817V41.5045C11.8817 42.0424 11.6681 42.5582 11.2877 42.9385C10.9074 43.3189 10.3916 43.5325 9.85372 43.5325C9.31586 43.5325 8.80002 43.3189 8.4197 42.9385C8.03937 42.5582 7.82571 42.0424 7.82571 41.5045V38.8005H5.12169C4.58382 38.8005 4.06799 38.5868 3.68766 38.2065C3.30733 37.8262 3.09367 37.3103 3.09367 36.7725C3.09367 36.2346 3.30733 35.7188 3.68766 35.3384C4.06799 34.9581 4.58382 34.7445 5.12169 34.7445H7.82571V32.0404C7.82571 31.5026 8.03937 30.9867 8.4197 30.6064C8.80002 30.2261 9.31586 30.0124 9.85372 30.0124Z" fill="black"/>
</g>
<defs>
<clipPath id="clip0_249_84">
<rect width="43.2643" height="43.2643" fill="white" transform="translate(0.388672 0.268311)"/>
</clipPath>
</defs>
</svg>
