<svg width="50" height="49" viewBox="0 0 50 49" fill="none" xmlns="http://www.w3.org/2000/svg">
<path d="M39.4011 18.5959C39.402 16.1575 38.7733 13.7601 37.576 11.6359C36.3787 9.51169 34.6533 7.73255 32.5668 6.47071C30.4802 5.20887 28.1033 4.50707 25.666 4.43325C23.2287 4.35943 20.8136 4.91609 18.6545 6.04934C16.4954 7.18259 14.6655 8.85405 13.3418 10.9019C12.0181 12.9498 11.2456 15.3047 11.0989 17.7387C10.9522 20.1727 11.4364 22.6033 12.5046 24.7953C13.5728 26.9873 15.1887 28.8665 17.1961 30.2508L11.0732 40.8535L15.6381 41.0417L18.0824 44.9003L25.0955 32.7517C25.1441 32.7517 25.1886 32.7598 25.2372 32.7598C25.2857 32.7598 25.3302 32.7537 25.3788 32.7517L32.392 44.9003L34.8848 41.1246L39.4011 40.8535L33.2782 30.2508C35.1673 28.9501 36.7117 27.2096 37.7784 25.1792C38.8451 23.1488 39.402 20.8894 39.4011 18.5959ZM15.1201 18.5959C15.1201 16.5949 15.7134 14.6389 16.8251 12.9751C17.9368 11.3114 19.5169 10.0147 21.3655 9.24893C23.2142 8.48319 25.2484 8.28284 27.2109 8.67321C29.1734 9.06358 30.9761 10.0271 32.391 11.442C33.8059 12.8569 34.7695 14.6596 35.1599 16.6222C35.5502 18.5847 35.3499 20.6189 34.5841 22.4675C33.8184 24.3162 32.5217 25.8963 30.8579 27.0079C29.1942 28.1196 27.2381 28.713 25.2372 28.713C22.5539 28.713 19.9806 27.6471 18.0833 25.7498C16.186 23.8524 15.1201 21.2791 15.1201 18.5959Z" fill="black"/>
<path d="M25.2372 24.6663C28.5898 24.6663 31.3075 21.9485 31.3075 18.596C31.3075 15.2435 28.5898 12.5258 25.2372 12.5258C21.8847 12.5258 19.167 15.2435 19.167 18.596C19.167 21.9485 21.8847 24.6663 25.2372 24.6663Z" fill="black"/>
</svg>
