<svg width="39" height="38" viewBox="0 0 39 38" fill="none" xmlns="http://www.w3.org/2000/svg">
<g clip-path="url(#clip0_249_90)">
<path d="M13.8538 6.36189C13.2305 6.36189 12.6134 6.48464 12.0376 6.72314C11.4618 6.96164 10.9386 7.31122 10.4979 7.75191C10.0573 8.1926 9.70768 8.71578 9.46918 9.29157C9.23067 9.86736 9.10792 10.4845 9.10792 11.1077C9.10792 11.731 9.23067 12.3481 9.46918 12.9239C9.70768 13.4997 10.0573 14.0228 10.4979 14.4635C10.9386 14.9042 11.4618 15.2538 12.0376 15.4923C12.6134 15.7308 13.2305 15.8536 13.8538 15.8536C15.1124 15.8536 16.3195 15.3535 17.2096 14.4635C18.0996 13.5735 18.5996 12.3664 18.5996 11.1077C18.5996 9.84905 18.0996 8.64192 17.2096 7.75191C16.3195 6.86189 15.1124 6.36189 13.8538 6.36189ZM5.94403 11.1077C5.94403 9.00993 6.77738 6.99806 8.26074 5.5147C9.7441 4.03134 11.756 3.198 13.8538 3.198C15.9515 3.198 17.9634 4.03134 19.4468 5.5147C20.9301 6.99806 21.7635 9.00993 21.7635 11.1077C21.7635 13.2055 20.9301 15.2174 19.4468 16.7007C17.9634 18.1841 15.9515 19.0174 13.8538 19.0174C11.756 19.0174 9.7441 18.1841 8.26074 16.7007C6.77738 15.2174 5.94403 13.2055 5.94403 11.1077ZM32.9526 8.96893L33.7388 10.3405C34.7029 12.0194 35.21 13.9218 35.2094 15.8579C35.2089 17.794 34.7007 19.6961 33.7356 21.3745L32.9462 22.7461L30.2047 21.1689L30.9925 19.7973C31.682 18.5986 32.0451 17.24 32.0456 15.8571C32.0462 14.4743 31.6842 13.1154 30.9957 11.9161L30.2079 10.5445L32.9526 8.96893ZM28.1514 11.7247L28.9376 13.0978C29.4197 13.9371 29.6735 14.888 29.6735 15.8559C29.6735 16.8238 29.4197 17.7748 28.9376 18.614L28.1466 19.9856L25.4051 18.4084L26.1929 17.0368C26.3999 16.6771 26.5088 16.2694 26.5088 15.8543C26.5088 15.4393 26.3999 15.0316 26.1929 14.6718L25.4067 13.3003L28.1514 11.7247ZM0.407227 30.091C0.407227 27.9933 1.24057 25.9814 2.72393 24.498C4.20729 23.0147 6.21916 22.1813 8.31695 22.1813H19.3906C21.4883 22.1813 23.5002 23.0147 24.9836 24.498C26.4669 25.9814 27.3003 27.9933 27.3003 30.091V33.2549H24.1364V30.091C24.1364 28.8324 23.6364 27.6253 22.7464 26.7352C21.8564 25.8452 20.6492 25.3452 19.3906 25.3452H8.31695C7.05828 25.3452 5.85115 25.8452 4.96114 26.7352C4.07112 27.6253 3.57112 28.8324 3.57112 30.091V33.2549H0.407227V30.091Z" fill="black"/>
</g>
<defs>
<clipPath id="clip0_249_90">
<rect width="37.9667" height="37.9667" fill="white" transform="translate(0.407227 0.0343018)"/>
</clipPath>
</defs>
</svg>
