<svg width="41" height="41" viewBox="0 0 41 41" fill="none" xmlns="http://www.w3.org/2000/svg">
<g clip-path="url(#clip0_249_61)">
<path d="M24.5734 33.8584C22.7308 32.9807 21.1468 31.641 19.9756 29.9695H6.09505V9.81136H36.3323V13.6145C37.6934 14.5691 38.8382 15.7997 39.692 17.2262V9.81136C39.6893 8.92113 39.3345 8.06812 38.705 7.43863C38.0755 6.80914 37.2225 6.45432 36.3323 6.45166H6.09505C5.20482 6.45432 4.35181 6.80914 3.72232 7.43863C3.09283 8.06812 2.73801 8.92113 2.73535 9.81136V29.9695C2.73801 30.8598 3.09283 31.7128 3.72232 32.3423C4.35181 32.9717 5.20482 33.3266 6.09505 33.3292H17.854V36.6889H14.4943V40.0486H27.9331V36.6889H24.5734V33.8584Z" fill="black"/>
<path d="M29.6133 13.1711C27.6198 13.1711 25.6711 13.7622 24.0136 14.8697C22.3561 15.9772 21.0643 17.5514 20.3014 19.3931C19.5385 21.2348 19.3389 23.2613 19.7279 25.2165C20.1168 27.1716 21.0767 28.9676 22.4863 30.3772C23.8959 31.7867 25.6918 32.7467 27.6469 33.1356C29.6021 33.5245 31.6287 33.3249 33.4704 32.562C35.3121 31.7992 36.8862 30.5073 37.9937 28.8498C39.1012 27.1923 39.6924 25.2436 39.6924 23.2502C39.6928 21.9264 39.4324 20.6156 38.926 19.3925C38.4197 18.1695 37.6773 17.0582 36.7412 16.1222C35.8052 15.1862 34.6939 14.4438 33.4709 13.9374C32.2478 13.431 30.937 13.1706 29.6133 13.1711ZM29.6133 29.9696C28.2843 29.9696 26.9852 29.5755 25.8802 28.8371C24.7752 28.0988 23.9139 27.0494 23.4054 25.8216C22.8968 24.5938 22.7637 23.2427 23.023 21.9393C23.2823 20.6358 23.9222 19.4386 24.8619 18.4988C25.8017 17.5591 26.9989 16.9192 28.3024 16.6599C29.6058 16.4006 30.9569 16.5337 32.1847 17.0423C33.4125 17.5508 34.4619 18.4121 35.2002 19.5171C35.9386 20.6221 36.3327 21.9212 36.3327 23.2502C36.3304 25.0316 35.6218 26.7394 34.3621 27.999C33.1025 29.2587 31.3947 29.9673 29.6133 29.9696Z" fill="black"/>
<path d="M29.6125 24.93C30.5402 24.93 31.2923 24.1779 31.2923 23.2502C31.2923 22.3224 30.5402 21.5703 29.6125 21.5703C28.6847 21.5703 27.9326 22.3224 27.9326 23.2502C27.9326 24.1779 28.6847 24.93 29.6125 24.93Z" fill="black"/>
</g>
<defs>
<clipPath id="clip0_249_61">
<rect width="40.3163" height="40.3163" fill="white" transform="translate(0.613281 0.0855713)"/>
</clipPath>
</defs>
</svg>
