<svg width="32" height="32" viewBox="0 0 32 32" fill="none" xmlns="http://www.w3.org/2000/svg">
<g clip-path="url(#clip0_249_73)">
<path d="M23.0644 18.9667C23.188 17.9469 23.2807 16.9271 23.2807 15.8764C23.2807 14.8256 23.188 13.8058 23.0644 12.786H28.287C28.5342 13.7749 28.6888 14.8102 28.6888 15.8764C28.6888 16.9425 28.5342 17.9778 28.287 18.9667M20.3295 27.5577C21.2566 25.8426 21.9673 23.9884 22.4618 22.057H27.02C25.523 24.6347 23.148 26.5874 20.3295 27.5577ZM19.9432 18.9667H12.7119C12.5573 17.9469 12.4646 16.9271 12.4646 15.8764C12.4646 14.8256 12.5573 13.7904 12.7119 12.786H19.9432C20.0823 13.7904 20.1904 14.8256 20.1904 15.8764C20.1904 16.9271 20.0823 17.9469 19.9432 18.9667ZM16.3275 28.1758C15.045 26.3216 14.0098 24.2665 13.3763 22.057H19.2788C18.6453 24.2665 17.61 26.3216 16.3275 28.1758ZM10.1469 9.69573H5.63505C7.1163 7.11074 9.48969 5.1549 12.3101 4.19498C11.383 5.9101 10.6877 7.76429 10.1469 9.69573ZM5.63505 22.057H10.1469C10.6877 23.9884 11.383 25.8426 12.3101 27.5577C9.49526 26.5878 7.12503 24.6346 5.63505 22.057ZM4.36803 18.9667C4.1208 17.9778 3.96629 16.9425 3.96629 15.8764C3.96629 14.8102 4.1208 13.7749 4.36803 12.786H9.59065C9.46704 13.8058 9.37433 14.8256 9.37433 15.8764C9.37433 16.9271 9.46704 17.9469 9.59065 18.9667M16.3275 3.56147C17.61 5.41566 18.6453 7.48616 19.2788 9.69573H13.3763C14.0098 7.48616 15.045 5.41566 16.3275 3.56147ZM27.02 9.69573H22.4618C21.9775 7.78223 21.2614 5.93499 20.3295 4.19498C23.1726 5.16843 25.5366 7.13078 27.02 9.69573ZM16.3275 0.424805C7.78282 0.424805 0.875977 7.378 0.875977 15.8764C0.875977 19.9744 2.5039 23.9045 5.40163 26.8022C6.83644 28.2371 8.5398 29.3752 10.4145 30.1517C12.2891 30.9282 14.2984 31.3279 16.3275 31.3279C20.4255 31.3279 24.3557 29.7 27.2534 26.8022C30.1511 23.9045 31.7791 19.9744 31.7791 15.8764C31.7791 13.8472 31.3794 11.838 30.6029 9.9633C29.8264 8.08863 28.6882 6.38527 27.2534 4.95046C25.8186 3.51565 24.1152 2.3775 22.2406 1.60098C20.3659 0.824471 18.3567 0.424805 16.3275 0.424805Z" fill="black"/>
</g>
<defs>
<clipPath id="clip0_249_73">
<rect width="30.9031" height="30.9031" fill="white" transform="translate(0.875977 0.424805)"/>
</clipPath>
</defs>
</svg>
