<svg width="48" height="35" viewBox="0 0 48 35" fill="none" xmlns="http://www.w3.org/2000/svg">
<path d="M12.4171 34.9767C9.15297 34.9767 6.36445 33.8468 4.05156 31.587C1.73867 29.3272 0.581513 26.5652 0.580078 23.301C0.580078 20.5032 1.42302 18.0102 3.1089 15.8222C4.79478 13.6341 7.00078 12.2352 9.72689 11.6254C10.6236 8.32538 12.4171 5.65308 15.1074 3.6085C17.7976 1.56392 20.8465 0.541626 24.2542 0.541626C28.4509 0.541626 32.0114 2.00368 34.9355 4.92779C37.8596 7.8519 39.3209 11.4116 39.3195 15.607C41.7945 15.8939 43.8484 16.9614 45.4812 18.8094C47.114 20.6574 47.9297 22.8182 47.9283 25.2918C47.9283 27.9821 46.987 30.2691 45.1046 32.153C43.2221 34.0369 40.9351 34.9781 38.2434 34.9767H12.4171ZM12.4171 30.6723H38.2434C39.7499 30.6723 41.0233 30.1522 42.0635 29.112C43.1038 28.0717 43.6239 26.7983 43.6239 25.2918C43.6239 23.7853 43.1038 22.5119 42.0635 21.4717C41.0233 20.4315 39.7499 19.9113 38.2434 19.9113H35.0151V15.607C35.0151 12.6298 33.9656 10.0916 31.8665 7.99251C29.7674 5.89341 27.2299 4.84457 24.2542 4.84601C21.2784 4.84744 18.741 5.89699 16.6419 7.99466C14.5428 10.0923 13.4932 12.6298 13.4932 15.607H12.4171C10.3367 15.607 8.56112 16.3423 7.09045 17.813C5.61979 19.2836 4.88446 21.0592 4.88446 23.1396C4.88446 25.2201 5.61979 26.9956 7.09045 28.4663C8.56112 29.937 10.3367 30.6723 12.4171 30.6723Z" fill="black"/>
</svg>
