<svg width="12" height="12" viewBox="0 0 12 12" fill="none" xmlns="http://www.w3.org/2000/svg">
<path d="M6.00098 4.30957C6.5741 3.72395 7.32035 3.34082 8.18848 3.34082C9.10016 3.34082 9.9745 3.70298 10.6192 4.34764C11.2638 4.9923 11.626 5.86664 11.626 6.77832V11.4658H10.376V6.77832C10.376 6.19816 10.1455 5.64176 9.73527 5.23152C9.32504 4.82129 8.76864 4.59082 8.18848 4.59082C7.60832 4.59082 7.05192 4.82129 6.64168 5.23152C6.23144 5.64176 6.00098 6.19816 6.00098 6.77832V11.4658H4.75098V3.65332H6.00098V4.30957ZM1.62598 2.40332C1.37734 2.40332 1.13888 2.30455 0.963064 2.12873C0.787249 1.95292 0.688477 1.71446 0.688477 1.46582C0.688477 1.21718 0.787249 0.978723 0.963064 0.802908C1.13888 0.627092 1.37734 0.52832 1.62598 0.52832C1.87462 0.52832 2.11307 0.627092 2.28889 0.802908C2.4647 0.978723 2.56348 1.21718 2.56348 1.46582C2.56348 1.71446 2.4647 1.95292 2.28889 2.12873C2.11307 2.30455 1.87462 2.40332 1.62598 2.40332ZM1.00098 3.65332H2.25098V11.4658H1.00098V3.65332Z" fill="#4786FF"/>
</svg>
