<svg width="360" height="39" viewBox="0 0 360 39" fill="none" xmlns="http://www.w3.org/2000/svg">
<path d="M16.0275 8.83765C23.1638 10.5205 27.0025 15.6064 26.9751 23.1817C26.9601 27.3382 26.9724 31.4947 26.9724 35.7237C25.2586 35.7237 23.642 35.7237 21.8547 35.7237C21.8547 34.7083 21.8548 33.7009 21.8547 32.6935C21.8545 29.1548 21.8894 25.6158 21.8446 22.0778C21.7937 18.0533 18.8274 14.5801 15.1352 14.127C11.0115 13.621 7.40726 16.0828 6.38691 20.1025C5.36508 24.128 7.26655 28.1815 10.9434 29.7955C11.3238 29.9625 11.7278 30.0708 12.2564 30.2531C12.2564 27.5353 12.2564 24.9634 12.2564 22.3138C13.7966 22.3138 15.2326 22.3138 16.7333 22.3138C16.7333 26.7546 16.7333 31.177 16.7332 35.5995C8.99339 36.9231 2.87818 32.1041 1.31834 25.2248C-0.309974 18.0436 4.13025 10.6228 11.0565 9.08069C12.6222 8.73209 14.2921 8.89297 16.0275 8.83765Z" fill="black"/>
<path d="M39.9649 33.4808C39.9649 34.2755 39.9649 34.9416 39.9649 35.705C38.2653 35.705 36.6214 35.705 34.8338 35.705C34.8338 34.791 34.8318 33.9093 34.8341 33.0276C34.844 29.3558 34.8606 25.684 34.8645 22.0122C34.8707 16.3594 31.2184 11.1836 25.9399 9.35057C25.6247 9.24113 25.3091 9.13306 24.8994 8.99184C31.1885 7.39294 38.1394 12.2107 39.6379 19.1438C39.8622 20.1817 39.9494 21.2701 39.9597 22.3365C39.995 26.0081 39.9681 29.6803 39.9649 33.4808Z" fill="black"/>
<path d="M76.7403 19.066V20.5821C76.7403 23.6144 75.74 26.0991 73.7396 28.0363C71.7392 29.9525 69.1281 30.9106 65.9064 30.9106C62.4952 30.9106 59.6735 29.8051 57.4415 27.5941C55.2305 25.3831 54.125 22.6668 54.125 19.4451C54.125 16.2444 55.2305 13.5386 57.4415 11.3276C59.6735 9.09555 62.432 7.97953 65.7169 7.97953C67.7805 7.97953 69.6651 8.45331 71.3707 9.40087C73.0763 10.3484 74.4029 11.6224 75.3505 13.2227L72.2235 15.0231C71.6339 13.9702 70.7601 13.128 69.6019 12.4963C68.4438 11.8435 67.1488 11.5171 65.7169 11.5171C63.4006 11.5171 61.495 12.2752 59.9999 13.7913C58.5049 15.3074 57.7574 17.2025 57.7574 19.4767C57.7574 21.7508 58.5049 23.6354 59.9999 25.1305C61.516 26.6255 63.4954 27.373 65.938 27.373C67.8963 27.373 69.4861 26.9203 70.7074 26.0149C71.9498 25.0883 72.7394 23.8565 73.0763 22.3194H65.6853V19.066H76.7403ZM83.0616 11.7066C82.6404 12.1278 82.135 12.3383 81.5454 12.3383C80.9559 12.3383 80.44 12.1278 79.9978 11.7066C79.5766 11.2644 79.366 10.7485 79.366 10.1589C79.366 9.56933 79.5766 9.06396 79.9978 8.64282C80.4189 8.20062 80.9348 7.97953 81.5454 7.97953C82.1561 7.97953 82.672 8.20062 83.0931 8.64282C83.5143 9.06396 83.7248 9.56933 83.7248 10.1589C83.7248 10.7485 83.5037 11.2644 83.0616 11.7066ZM79.8398 30.5V14.7072H83.2511V30.5H79.8398ZM90.6231 17.3604C91.4864 15.4021 93.1078 14.423 95.4872 14.423V18.1185C94.1817 18.0342 93.0446 18.3501 92.076 19.066C91.1074 19.7609 90.6231 20.9191 90.6231 22.5404V30.5H87.2118V14.7072H90.6231V17.3604ZM115.253 14.2966C117.043 14.2966 118.486 14.8757 119.581 16.0338C120.676 17.192 121.223 18.7502 121.223 20.7085V30.5H117.812V20.9296C117.812 19.8346 117.538 18.9923 116.991 18.4027C116.443 17.7921 115.696 17.4868 114.748 17.4868C113.695 17.4868 112.853 17.8342 112.221 18.5291C111.611 19.224 111.305 20.2663 111.305 21.6561V30.5H107.894V20.9296C107.894 19.8346 107.631 18.9923 107.104 18.4027C106.599 17.7921 105.872 17.4868 104.925 17.4868C103.893 17.4868 103.051 17.8447 102.398 18.5607C101.745 19.2556 101.419 20.2873 101.419 21.6561V30.5H98.0077V14.7072H101.419V16.6024C102.43 15.0652 103.935 14.2966 105.936 14.2966C107.957 14.2966 109.452 15.1284 110.421 16.7919C111.474 15.1284 113.084 14.2966 115.253 14.2966ZM137.382 14.7072H140.793V30.5H137.382V28.2258C136.097 30.0157 134.255 30.9106 131.854 30.9106C129.685 30.9106 127.832 30.1104 126.295 28.5101C124.758 26.8887 123.989 24.9199 123.989 22.6036C123.989 20.2663 124.758 18.2975 126.295 16.6971C127.832 15.0968 129.685 14.2966 131.854 14.2966C134.255 14.2966 136.097 15.181 137.382 16.9498V14.7072ZM128.822 26.236C129.77 27.1835 130.959 27.6573 132.391 27.6573C133.823 27.6573 135.013 27.1835 135.96 26.236C136.908 25.2673 137.382 24.0566 137.382 22.6036C137.382 21.1507 136.908 19.9504 135.96 19.0029C135.013 18.0342 133.823 17.5499 132.391 17.5499C130.959 17.5499 129.77 18.0342 128.822 19.0029C127.874 19.9504 127.401 21.1507 127.401 22.6036C127.401 24.0566 127.874 25.2673 128.822 26.236ZM153.076 14.2966C154.887 14.2966 156.35 14.8757 157.466 16.0338C158.582 17.192 159.14 18.7818 159.14 20.8032V30.5H155.729V21.1507C155.729 19.9715 155.413 19.066 154.782 18.4343C154.15 17.8026 153.287 17.4868 152.192 17.4868C150.991 17.4868 150.023 17.8658 149.286 18.6238C148.549 19.3608 148.18 20.4979 148.18 22.0351V30.5H144.769V14.7072H148.18V16.7287C149.212 15.1073 150.844 14.2966 153.076 14.2966ZM185.239 8.39014V11.1697H178.701V30.5H175.795V11.1697H169.289V8.39014H185.239ZM186.92 23.867C187.194 25.2779 187.836 26.3728 188.847 27.1519C189.879 27.931 191.142 28.3206 192.637 28.3206C194.722 28.3206 196.238 27.552 197.185 26.0149L199.523 27.3414C197.986 29.7209 195.669 30.9106 192.574 30.9106C190.068 30.9106 188.026 30.1315 186.446 28.5733C184.888 26.994 184.109 25.0041 184.109 22.6036C184.109 20.2242 184.878 18.2448 186.415 16.6655C187.952 15.0863 189.942 14.2966 192.384 14.2966C194.701 14.2966 196.585 15.1179 198.038 16.7603C199.512 18.3817 200.249 20.34 200.249 22.6352C200.249 23.0353 200.218 23.4459 200.154 23.867H186.92ZM192.384 16.8866C190.91 16.8866 189.689 17.3078 188.721 18.1501C187.752 18.9713 187.152 20.0768 186.92 21.4665H197.47C197.238 19.9715 196.648 18.8344 195.701 18.0553C194.753 17.2762 193.648 16.8866 192.384 16.8866ZM210.8 30.9106C208.42 30.9106 206.441 30.121 204.862 28.5417C203.282 26.9414 202.493 24.962 202.493 22.6036C202.493 20.2452 203.282 18.2764 204.862 16.6971C206.441 15.0968 208.42 14.2966 210.8 14.2966C212.358 14.2966 213.758 14.6757 215.001 15.4337C216.243 16.1707 217.17 17.1709 217.78 18.4343L215.474 19.7609C215.074 18.9186 214.453 18.2448 213.611 17.7395C212.79 17.2341 211.853 16.9814 210.8 16.9814C209.221 16.9814 207.894 17.5184 206.82 18.5923C205.767 19.6662 205.241 21.0033 205.241 22.6036C205.241 24.1829 205.767 25.5095 206.82 26.5834C207.894 27.6573 209.221 28.1943 210.8 28.1943C211.853 28.1943 212.8 27.9521 213.642 27.4678C214.485 26.9624 215.127 26.2886 215.569 25.4463L217.907 26.8045C217.233 28.0469 216.264 29.0471 215.001 29.8051C213.737 30.5421 212.337 30.9106 210.8 30.9106ZM228.484 14.2966C230.337 14.2966 231.822 14.8862 232.938 16.0654C234.054 17.2236 234.612 18.8028 234.612 20.8032V30.5H231.864V20.9612C231.864 19.6767 231.517 18.687 230.822 17.9921C230.127 17.2762 229.169 16.9182 227.948 16.9182C226.579 16.9182 225.473 17.3499 224.631 18.2132C223.789 19.0555 223.368 20.361 223.368 22.1298V30.5H220.62V8.39014H223.368V16.9814C224.484 15.1916 226.189 14.2966 228.484 14.2966ZM246.313 14.2966C248.166 14.2966 249.651 14.8862 250.767 16.0654C251.883 17.2236 252.441 18.8028 252.441 20.8032V30.5H249.693V20.9612C249.693 19.6767 249.345 18.687 248.65 17.9921C247.955 17.2762 246.997 16.9182 245.776 16.9182C244.407 16.9182 243.302 17.3499 242.46 18.2132C241.617 19.0555 241.196 20.361 241.196 22.1298V30.5H238.448V14.7072H241.196V16.9814C242.312 15.1916 244.018 14.2966 246.313 14.2966ZM269.606 28.5101C267.984 30.1104 266.016 30.9106 263.699 30.9106C261.383 30.9106 259.414 30.1104 257.793 28.5101C256.193 26.9098 255.392 24.9409 255.392 22.6036C255.392 20.2663 256.193 18.2975 257.793 16.6971C259.414 15.0968 261.383 14.2966 263.699 14.2966C266.016 14.2966 267.984 15.0968 269.606 16.6971C271.227 18.2975 272.038 20.2663 272.038 22.6036C272.038 24.9409 271.227 26.9098 269.606 28.5101ZM263.699 28.2258C265.279 28.2258 266.605 27.6889 267.679 26.615C268.753 25.5411 269.29 24.204 269.29 22.6036C269.29 21.0033 268.753 19.6662 267.679 18.5923C266.605 17.5184 265.279 16.9814 263.699 16.9814C262.141 16.9814 260.825 17.5184 259.751 18.5923C258.677 19.6662 258.14 21.0033 258.14 22.6036C258.14 24.204 258.677 25.5411 259.751 26.615C260.825 27.6889 262.141 28.2258 263.699 28.2258ZM275.277 30.5V7.44257H278.025V30.5H275.277ZM295.547 28.5101C293.925 30.1104 291.956 30.9106 289.64 30.9106C287.324 30.9106 285.355 30.1104 283.734 28.5101C282.133 26.9098 281.333 24.9409 281.333 22.6036C281.333 20.2663 282.133 18.2975 283.734 16.6971C285.355 15.0968 287.324 14.2966 289.64 14.2966C291.956 14.2966 293.925 15.0968 295.547 16.6971C297.168 18.2975 297.979 20.2663 297.979 22.6036C297.979 24.9409 297.168 26.9098 295.547 28.5101ZM289.64 28.2258C291.219 28.2258 292.546 27.6889 293.62 26.615C294.694 25.5411 295.231 24.204 295.231 22.6036C295.231 21.0033 294.694 19.6662 293.62 18.5923C292.546 17.5184 291.219 16.9814 289.64 16.9814C288.082 16.9814 286.766 17.5184 285.692 18.5923C284.618 19.6662 284.081 21.0033 284.081 22.6036C284.081 24.204 284.618 25.5411 285.692 26.615C286.766 27.6889 288.082 28.2258 289.64 28.2258ZM314.326 14.7072H317.043V29.8367C317.043 32.174 316.253 33.9849 314.674 35.2694C313.094 36.5749 311.199 37.2277 308.988 37.2277C307.22 37.2277 305.693 36.8908 304.408 36.217C303.124 35.5642 302.155 34.6166 301.503 33.3743L303.903 32.0161C304.766 33.7849 306.483 34.6693 309.051 34.6693C310.694 34.6693 311.978 34.2376 312.905 33.3743C313.852 32.5109 314.326 31.3318 314.326 29.8367V27.5941C312.936 29.6998 310.957 30.7527 308.388 30.7527C306.135 30.7527 304.229 29.9525 302.671 28.3522C301.113 26.7519 300.334 24.8041 300.334 22.5089C300.334 20.2136 301.113 18.2764 302.671 16.6971C304.229 15.0968 306.135 14.2966 308.388 14.2966C310.978 14.2966 312.958 15.339 314.326 17.4236V14.7072ZM304.693 26.5202C305.767 27.5941 307.104 28.1311 308.704 28.1311C310.304 28.1311 311.641 27.5941 312.715 26.5202C313.789 25.4463 314.326 24.1092 314.326 22.5089C314.326 20.9296 313.789 19.603 312.715 18.5291C311.641 17.4552 310.304 16.9182 308.704 16.9182C307.104 16.9182 305.767 17.4552 304.693 18.5291C303.619 19.603 303.082 20.9296 303.082 22.5089C303.082 24.1092 303.619 25.4463 304.693 26.5202ZM322.596 11.833C322.069 11.833 321.627 11.654 321.269 11.296C320.911 10.938 320.732 10.5064 320.732 10.001C320.732 9.49563 320.911 9.06396 321.269 8.70599C321.627 8.32697 322.069 8.13745 322.596 8.13745C323.101 8.13745 323.533 8.32697 323.891 8.70599C324.249 9.06396 324.428 9.49563 324.428 10.001C324.428 10.5064 324.249 10.938 323.891 11.296C323.533 11.654 323.101 11.833 322.596 11.833ZM321.206 30.5V14.7072H323.954V30.5H321.206ZM330.073 23.867C330.347 25.2779 330.989 26.3728 332 27.1519C333.031 27.931 334.295 28.3206 335.79 28.3206C337.875 28.3206 339.391 27.552 340.338 26.0149L342.676 27.3414C341.138 29.7209 338.822 30.9106 335.727 30.9106C333.221 30.9106 331.178 30.1315 329.599 28.5733C328.041 26.994 327.262 25.0041 327.262 22.6036C327.262 20.2242 328.03 18.2448 329.568 16.6655C331.105 15.0863 333.095 14.2966 335.537 14.2966C337.853 14.2966 339.738 15.1179 341.191 16.7603C342.665 18.3817 343.402 20.34 343.402 22.6352C343.402 23.0353 343.37 23.4459 343.307 23.867H330.073ZM335.537 16.8866C334.063 16.8866 332.842 17.3078 331.873 18.1501C330.905 18.9713 330.305 20.0768 330.073 21.4665H340.622C340.391 19.9715 339.801 18.8344 338.854 18.0553C337.906 17.2762 336.801 16.8866 335.537 16.8866ZM348.313 18.9713C348.313 19.5819 348.618 20.0768 349.229 20.4558C349.839 20.8138 350.576 21.1086 351.44 21.3402C352.303 21.5508 353.166 21.8035 354.03 22.0983C354.893 22.372 355.63 22.8563 356.241 23.5512C356.851 24.225 357.157 25.0989 357.157 26.1728C357.157 27.6047 356.599 28.7523 355.483 29.6156C354.388 30.4789 352.977 30.9106 351.25 30.9106C349.713 30.9106 348.397 30.5737 347.302 29.8999C346.207 29.2261 345.428 28.3311 344.965 27.2151L347.334 25.8569C347.586 26.615 348.06 27.2151 348.755 27.6573C349.45 28.0995 350.282 28.3206 351.25 28.3206C352.156 28.3206 352.903 28.1521 353.493 27.8152C354.082 27.4573 354.377 26.9098 354.377 26.1728C354.377 25.5621 354.072 25.0778 353.461 24.7199C352.851 24.3408 352.114 24.046 351.25 23.8355C350.387 23.6038 349.524 23.3406 348.66 23.0458C347.797 22.751 347.06 22.2667 346.449 21.5929C345.839 20.9191 345.533 20.0557 345.533 19.0029C345.533 17.6342 346.06 16.5076 347.113 15.6232C348.186 14.7388 349.524 14.2966 351.124 14.2966C352.408 14.2966 353.545 14.5914 354.535 15.181C355.546 15.7496 356.304 16.5497 356.809 17.5815L354.504 18.8765C353.935 17.5289 352.808 16.8551 351.124 16.8551C350.345 16.8551 349.681 17.0446 349.134 17.4236C348.586 17.7816 348.313 18.2975 348.313 18.9713Z" fill="black"/>
</svg>
