<svg width="14" height="11" viewBox="0 0 14 11" fill="none" xmlns="http://www.w3.org/2000/svg">
<path d="M11.6473 0.540527H2.35352C1.93911 0.540527 1.54169 0.705147 1.24866 0.998173C0.955636 1.2912 0.791016 1.68863 0.791016 2.10303V8.89678C0.791016 9.31118 0.955636 9.7086 1.24866 10.0016C1.54169 10.2947 1.93911 10.4593 2.35352 10.4593H11.6473C12.0617 10.4593 12.4591 10.2947 12.7521 10.0016C13.0451 9.7086 13.2098 9.31118 13.2098 8.89678V2.10303C13.2098 1.68863 13.0451 1.2912 12.7521 0.998173C12.4591 0.705147 12.0617 0.540527 11.6473 0.540527ZM2.35352 1.16553H11.6473C11.8838 1.16499 12.1117 1.25448 12.2846 1.41583C12.4576 1.57717 12.5626 1.79828 12.5785 2.03428C11.0348 2.85928 9.48477 3.67803 7.93477 4.50303C7.72541 4.63504 7.50349 4.74599 7.27227 4.83428C7.09096 4.87018 6.90408 4.86701 6.7241 4.82498C6.54412 4.78295 6.37517 4.70302 6.22852 4.59053C5.34102 4.12178 4.45352 3.64678 3.57227 3.17803C2.85977 2.80303 2.13477 2.42178 1.42227 2.04053C1.43661 1.80342 1.54103 1.58076 1.71414 1.4181C1.88725 1.25545 2.11598 1.16509 2.35352 1.16553ZM12.5848 8.89678C12.5848 9.14542 12.486 9.38387 12.3102 9.55969C12.1344 9.7355 11.8959 9.83428 11.6473 9.83428H2.35352C2.10488 9.83428 1.86642 9.7355 1.6906 9.55969C1.51479 9.38387 1.41602 9.14542 1.41602 8.89678V2.7499C2.89102 3.5249 4.35977 4.3124 5.83477 5.09365C6.09822 5.25536 6.38194 5.38146 6.67852 5.46865C7.11251 5.53933 7.55734 5.44814 7.92852 5.2124C8.83477 4.7374 9.73477 4.25615 10.641 3.78115C11.291 3.43115 11.9348 3.09365 12.5848 2.7499V8.89678Z" fill="#FF8080"/>
</svg>
