<svg width="16" height="16" viewBox="0 0 16 16" fill="none" xmlns="http://www.w3.org/2000/svg">
<path d="M14.8569 10.7818L11.2415 9.16158C11.0777 9.09139 10.8989 9.06316 10.7215 9.07947C10.544 9.09577 10.3734 9.15609 10.2251 9.25495C10.2101 9.26461 10.1957 9.27535 10.1822 9.28709L8.29264 10.8943C8.27303 10.905 8.25121 10.911 8.22889 10.9118C8.20658 10.9126 8.18438 10.9081 8.16406 10.8989C6.94948 10.3126 5.69127 9.06208 5.10273 7.86433C5.09293 7.84432 5.08783 7.82233 5.08783 7.80005C5.08783 7.77776 5.09293 7.75577 5.10273 7.73576L6.71529 5.82242C6.72686 5.80827 6.73759 5.79344 6.74743 5.77803C6.84492 5.62918 6.90381 5.45839 6.91878 5.28108C6.93374 5.10377 6.90431 4.92552 6.83315 4.76244L5.22442 1.15312C5.13306 0.940059 4.97506 0.762374 4.77414 0.646734C4.57322 0.531094 4.34021 0.483737 4.11009 0.511771C3.10997 0.643253 2.19194 1.1344 1.52756 1.89343C0.863184 2.65246 0.497912 3.62743 0.500009 4.63616C0.500009 10.6287 5.37519 15.5039 11.3678 15.5039C12.3764 15.5058 13.3513 15.1405 14.1103 14.4762C14.8693 13.8118 15.3605 12.8939 15.4921 11.8938C15.5201 11.6648 15.4734 11.4328 15.3589 11.2325C15.2445 11.0321 15.0684 10.874 14.8569 10.7818ZM11.3678 14.5855C5.88184 14.5855 1.41841 10.1221 1.41841 4.63616C1.41585 3.85087 1.69929 3.09151 2.21577 2.49996C2.73225 1.90841 3.44643 1.52514 4.22489 1.42175H4.24249C4.27333 1.42233 4.30328 1.43221 4.32841 1.4501C4.35354 1.46799 4.37268 1.49306 4.38331 1.52201L5.99817 5.1275C6.00738 5.14755 6.01215 5.16934 6.01215 5.19141C6.01215 5.21347 6.00738 5.23526 5.99817 5.25531L4.38255 7.17324C4.3705 7.18693 4.35949 7.20151 4.34964 7.21686C4.24854 7.3712 4.18901 7.54902 4.17681 7.73312C4.16461 7.91721 4.20015 8.10134 4.27999 8.26767C4.95884 9.65751 6.35941 11.0474 7.76456 11.7262C7.93186 11.8056 8.11688 11.8403 8.30158 11.8269C8.48628 11.8135 8.66435 11.7524 8.81842 11.6497C8.83297 11.6397 8.84751 11.629 8.86128 11.6175L10.7501 10.0103C10.7688 10.0003 10.7894 9.99443 10.8105 9.99311C10.8317 9.99179 10.8528 9.99505 10.8726 10.0027L14.4888 11.6229C14.5183 11.6355 14.5432 11.657 14.5598 11.6845C14.5764 11.712 14.584 11.744 14.5814 11.776C14.4785 12.5548 14.0956 13.2695 13.5042 13.7865C12.9128 14.3036 12.1533 14.5876 11.3678 14.5855Z" fill="#64BF62"/>
</svg>
