<svg width="225" height="206" viewBox="0 0 225 206" fill="none" xmlns="http://www.w3.org/2000/svg">
<path d="M212.759 74.4405L70.2733 -68.0456C68.9372 -69.3817 68.1866 -71.1938 68.1866 -73.0833V-107.535C68.1866 -111.47 64.9969 -114.659 61.0623 -114.659H-116.469C-118.359 -114.659 -120.171 -113.909 -121.507 -112.573L-185.914 -48.1657L-308.52 74.4405C-313.008 78.9285 -309.829 86.6024 -303.482 86.6024H207.722C214.069 86.6024 217.247 78.9285 212.759 74.4405Z" stroke="#506AFF" stroke-width="1.18738"/>
<path opacity="0.7" d="M189.011 98.188L46.5252 -44.2981C45.1892 -45.6341 44.4386 -47.4462 44.4386 -49.3357V-83.7873C44.4386 -87.722 41.2489 -90.9116 37.3143 -90.9116H-140.217C-142.107 -90.9116 -143.919 -90.161 -145.255 -88.825L-209.662 -24.4181L-332.268 98.188C-336.756 102.676 -333.577 110.35 -327.23 110.35H183.974C190.321 110.35 193.499 102.676 189.011 98.188Z" stroke="#506AFF" stroke-width="1.18738"/>
<path opacity="0.5" d="M165.263 121.936L22.7772 -20.5503C21.4411 -21.8863 20.6905 -23.6984 20.6905 -25.5879V-60.0395C20.6905 -63.9742 17.5009 -67.1638 13.5662 -67.1638H-163.965C-165.855 -67.1638 -167.667 -66.4132 -169.003 -65.0772L-233.41 -0.670311L-356.016 121.936C-360.504 126.424 -357.325 134.098 -350.978 134.098H160.226C166.573 134.098 169.751 126.424 165.263 121.936Z" stroke="#506AFF" stroke-width="1.18738"/>
<path opacity="0.4" d="M141.515 145.684L-0.970856 3.19754C-2.30692 1.86148 -3.05753 0.0493774 -3.05753 -1.8401V-36.2917C-3.05753 -40.2264 -6.24719 -43.416 -10.1818 -43.416H-187.713C-189.603 -43.416 -191.415 -42.6654 -192.751 -41.3294L-257.158 23.0775L-379.764 145.684C-384.252 150.172 -381.073 157.846 -374.726 157.846H136.478C142.825 157.846 146.003 150.172 141.515 145.684Z" stroke="#506AFF" stroke-width="1.18738"/>
<path opacity="0.2" d="M117.768 169.431L-24.7179 26.9451C-26.054 25.609 -26.8046 23.7969 -26.8046 21.9075V-12.5442C-26.8046 -16.4788 -29.9943 -19.6685 -33.9289 -19.6685H-211.46C-213.35 -19.6685 -215.162 -18.9179 -216.498 -17.5818L-280.905 46.8251L-403.511 169.431C-407.999 173.919 -404.82 181.593 -398.473 181.593H112.731C119.078 181.593 122.256 173.919 117.768 169.431Z" stroke="#506AFF" stroke-width="1.18738"/>
<path opacity="0.05" d="M94.0201 193.179L-48.466 50.6929C-49.802 49.3568 -50.5526 47.5447 -50.5526 45.6553V11.2036C-50.5526 7.26901 -53.7423 4.07935 -57.6769 4.07935H-235.208C-237.098 4.07935 -238.91 4.82994 -240.246 6.166L-304.653 70.5729L-427.259 193.179C-431.747 197.667 -428.568 205.341 -422.221 205.341H88.9825C95.3295 205.341 98.5082 197.667 94.0201 193.179Z" stroke="#506AFF" stroke-width="1.18738"/>
</svg>
